<svg width="21" height="20" viewBox="0 0 21 20" fill="none" xmlns="http://www.w3.org/2000/svg">
    <path fill-rule="evenodd" clip-rule="evenodd" d="M10.446 1.667h.108c1.75 0 3.136 0 4.221.146 1.117.15 2.02.466 2.733 1.179.713.712 1.03 1.616 1.18 2.733.145 1.085.145 2.471.145 4.221v.108c0 1.75 0 3.136-.145 4.221-.15 1.117-.467 2.02-1.18 2.733-.712.713-1.616 1.03-2.733 1.18-1.085.145-2.471.145-4.221.145h-5.81c-.413 0-.791 0-1.098-.04-.339-.046-.697-.153-.991-.448-.294-.294-.402-.652-.447-.99-.041-.308-.041-.686-.041-1.098v-5.81c0-1.751 0-3.137.146-4.222.15-1.117.466-2.02 1.179-2.733.712-.713 1.616-1.03 2.733-1.18 1.085-.145 2.471-.145 4.221-.145zm-4.03 1.561c-.96.13-1.511.37-1.914.774-.403.403-.645.955-.774 1.913-.131.979-.133 2.269-.133 4.085v5.714c0 .47.002.75.029.95a.672.672 0 0 0 .04.169l.001.002.002.001a.675.675 0 0 0 .169.04c.2.027.48.029.95.029H10.5c1.816 0 3.106-.002 4.085-.133.958-.13 1.51-.37 1.913-.774.403-.403.645-.955.774-1.913.131-.979.133-2.269.133-4.085 0-1.816-.002-3.106-.133-4.085-.13-.958-.37-1.51-.774-1.913-.403-.403-.955-.645-1.913-.774-.979-.131-2.269-.133-4.085-.133-1.816 0-3.106.002-4.085.133z" fill="#22240F"/>
    <path fill-rule="evenodd" clip-rule="evenodd" d="M6.929 8.095c0-.394.32-.714.714-.714h5.714a.714.714 0 1 1 0 1.429H7.643a.714.714 0 0 1-.714-.715zM6.929 11.905c0-.395.32-.714.714-.714H10.5a.714.714 0 1 1 0 1.428H7.643a.714.714 0 0 1-.714-.714z" fill="#22240F"/>
</svg>
