<svg width="21" height="20" viewBox="0 0 21 20" fill="none" xmlns="http://www.w3.org/2000/svg">
    <path fill-rule="evenodd" clip-rule="evenodd" d="M12.291 2.86a4.73 4.73 0 0 1 5.156 7.717l-6.433 6.433a.728.728 0 0 1-1.029 0l-6.433-6.433a4.73 4.73 0 1 1 6.691-6.69l.257.256.257-.257c.439-.44.96-.788 1.534-1.026zm1.811 1.095a3.275 3.275 0 0 0-2.316.96l-.772.772a.728.728 0 0 1-1.029 0l-.771-.772A3.276 3.276 0 1 0 4.58 9.548l5.919 5.918 5.918-5.918a3.275 3.275 0 0 0-2.316-5.593z" fill="#F45B69"/>
</svg>
