<svg width="120" height="33" viewBox="0 0 120 33" fill="none" xmlns="http://www.w3.org/2000/svg">
    <g clip-path="url(#i7247tr3ta)">
        <path d="M70.544 4.788a1.113 1.113 0 0 1-.789.272H63.23v19.295a.908.908 0 0 1-.056.407.944.944 0 0 1-.23.346 1.002 1.002 0 0 1-.363.22 1.04 1.04 0 0 1-.427.055h-3.55a1.037 1.037 0 0 1-.427-.054 1.002 1.002 0 0 1-.363-.22.944.944 0 0 1-.23-.347.908.908 0 0 1-.057-.407V5.061h-6.563a1.037 1.037 0 0 1-.426-.053.999.999 0 0 1-.363-.22.942.942 0 0 1-.23-.346.905.905 0 0 1-.056-.407V1.4a.907.907 0 0 1 .056-.406.944.944 0 0 1 .231-.345 1 1 0 0 1 .363-.22c.136-.047.281-.065.425-.053h18.793c.144-.012.29.006.425.053a1 1 0 0 1 .363.22.943.943 0 0 1 .231.345c.05.13.07.269.057.406v2.634a.98.98 0 0 1-.288.754zM98.917 1.1c-.004.181-.053.359-.143.518L86.696 24.87a.762.762 0 0 1-.27.387.823.823 0 0 1-.456.165c-.267 0-.509-.184-.726-.552L73.24 1.621a1.12 1.12 0 0 1-.142-.518c0-.461.314-.692.942-.692h3.953c.274-.019.547.044.781.18.234.136.418.34.524.58l6.676 13.215 6.71-13.215c.107-.24.29-.444.524-.58.234-.137.508-.2.781-.18h3.99c.626 0 .939.23.939.69zM99.735 21.583c.01-.232.09-.457.233-.645l1.659-2.44a.774.774 0 0 1 .291-.34.831.831 0 0 1 .438-.134c.231.011.452.095.63.237a15.16 15.16 0 0 0 3.599 1.812c1.177.452 2.429.699 3.698.728a5.898 5.898 0 0 0 3.25-.796c.363-.196.666-.479.881-.82.215-.34.334-.73.346-1.127 0-1.105-.84-1.896-2.521-2.372l-2.886-.61a26.13 26.13 0 0 1-4.693-1.153 9.047 9.047 0 0 1-3.301-2.132c-1.082-1.039-1.624-2.473-1.625-4.303 0-2.507.902-4.382 2.705-5.625 1.803-1.243 4.108-1.864 6.914-1.864 1.586-.024 3.166.2 4.677.66a15.776 15.776 0 0 1 4.079 2.05 1 1 0 0 1 .332.336.936.936 0 0 1 .132.444.952.952 0 0 1-.231.643l-1.76 2.44a.825.825 0 0 1-.296.334.886.886 0 0 1-.433.14 1.14 1.14 0 0 1-.663-.236 12.935 12.935 0 0 0-3.003-1.458 9.66 9.66 0 0 0-3.034-.509 6.574 6.574 0 0 0-2.952.61 2.029 2.029 0 0 0-.903.738 1.883 1.883 0 0 0-.323 1.092c-.003.24.052.479.162.696.109.217.269.407.468.556.455.357.988.612 1.56.747.44.136 1.315.351 2.618.642l1.194.238c1.63.29 3.229.72 4.777 1.288a7.383 7.383 0 0 1 2.919 2.132c.885 1.04 1.327 2.485 1.326 4.337 0 2.462-.856 4.36-2.569 5.693-1.712 1.332-4.072 1.998-7.081 1.998-4.003 0-7.397-1.084-10.182-3.252a1.001 1.001 0 0 1-.311-.34.952.952 0 0 1-.12-.435z" fill="#111183"/>
        <path d="M49.55 6.67a1.115 1.115 0 0 0-.725-.208h-3.952c-.28-.024-.56.046-.791.197-.232.151-.4.375-.478.632L39.288 18.57 34.573 7.257a1.168 1.168 0 0 0-.474-.598 1.261 1.261 0 0 0-.759-.197h-3.99a1.045 1.045 0 0 0-.671.19.63.63 0 0 0-.178.223.6.6 0 0 0-.056.276c.002.178.038.354.107.52l7.978 17.053-2.77 6.47a1.352 1.352 0 0 0-.109.486c0 .488.314.729.943.729h3.7c.269.016.536-.054.759-.198.223-.144.39-.354.475-.598L49.697 7.674c.062-.143.1-.296.11-.451a.66.66 0 0 0-.062-.305.692.692 0 0 0-.194-.248zM25.341 8.492a7.326 7.326 0 0 0-2.6-1.514c-2.18-.7-4.54-.7-6.72 0a7.538 7.538 0 0 0-2.237 1.205 7.539 7.539 0 0 0-2.238-1.205 10.273 10.273 0 0 0-3.367-.525 10.529 10.529 0 0 0-2.965.4.497.497 0 0 0-.202-.305.542.542 0 0 0-.366-.095H.586a.559.559 0 0 0-.434.148.507.507 0 0 0-.152.416v6.35h.016A8.96 8.96 0 0 0 0 13.89v11.147a.488.488 0 0 0 .152.415.538.538 0 0 0 .434.148h4.06a.558.558 0 0 0 .434-.148.509.509 0 0 0 .152-.415v-11.15c-.011-.37.056-.74.197-1.086.142-.346.355-.661.627-.927a2.85 2.85 0 0 1 .97-.609 2.96 2.96 0 0 1 1.144-.187h.044c.389-.012.776.052 1.138.19.362.136.69.343.964.606.272.266.485.581.626.927.142.346.209.716.197 1.087v11.148a.487.487 0 0 0 .153.414.54.54 0 0 0 .434.148h4.116a.561.561 0 0 0 .434-.148.507.507 0 0 0 .152-.414V13.887c-.011-.371.056-.74.197-1.087.141-.346.354-.661.626-.927.276-.265.606-.472.97-.609s.754-.2 1.145-.187h.044c.389-.012.776.052 1.137.19.362.136.69.343.963.606.273.266.486.581.627.927.142.346.21.716.198 1.087v11.148a.488.488 0 0 0 .152.413.54.54 0 0 0 .432.15h4.064a.558.558 0 0 0 .433-.15.507.507 0 0 0 .153-.413V13.887a7.806 7.806 0 0 0-.57-3.04 6.645 6.645 0 0 0-1.658-2.355z" fill="#FF4D01"/>
    </g>
    <defs>
        <clipPath id="i7247tr3ta">
            <path fill="#fff" d="M0 0h120v32.409H0z"/>
        </clipPath>
    </defs>
</svg>
