<svg width="24" height="24" viewBox="0 0 24 24" fill="none" xmlns="http://www.w3.org/2000/svg">
    <path d="m19.664 15.609-.204-.242c-.916-1.085-1.47-1.74-1.47-4.81 0-1.59-.388-2.894-1.154-3.873-.564-.722-1.328-1.27-2.333-1.676a.125.125 0 0 1-.035-.027C14.107 3.794 13.117 3 12 3s-2.106.794-2.468 1.98a.13.13 0 0 1-.034.026c-2.347.946-3.487 2.761-3.487 5.55 0 3.072-.554 3.726-1.47 4.81-.067.079-.135.158-.204.242a1.407 1.407 0 0 0-.194 1.534c.257.529.805.858 1.43.858h12.86c.621 0 1.165-.329 1.423-.856a1.408 1.408 0 0 0-.192-1.535zM12 21c.611 0 1.211-.164 1.736-.473a3.358 3.358 0 0 0 1.244-1.282.164.164 0 0 0-.066-.224.172.172 0 0 0-.083-.021H9.17a.172.172 0 0 0-.146.08.165.165 0 0 0-.004.165c.29.53.72.973 1.244 1.282.525.309 1.124.472 1.736.473z" fill="#999"/>
</svg>
