<svg width="30" height="33" viewBox="0 0 30 33" fill="none" xmlns="http://www.w3.org/2000/svg">
    <path d="M30 17.358C30 25.721 23.284 32.5 15 32.5c-8.284 0-15-6.78-15-15.142C0 8.996 6.716 2.217 15 2.217c8.284 0 15 6.779 15 15.141z" fill="#FFE7E2"/>
    <path d="M18.968 24.413h-7.936v-9.049h7.936v9.049z" fill="#EF948C"/>
    <path d="M22.772 9.012c-.437-1.056-1.332-.538-1.332-.538C21.957 3.671 19.537.5 15 .5c-4.537 0-6.957 3.17-6.44 7.974 0 0-.895-.518-1.333.538-.437 1.057.362 3.535.857 4.323.495.787 1.37 1.383 1.37 1.383s.057.883.286 1.498c.228.615 2.816 3.442 3.578 3.874.998.593 2.468.593 3.364 0 .761-.432 3.35-3.259 3.578-3.873.228-.615.286-1.5.286-1.5s.875-.595 1.37-1.382c.495-.788 1.294-3.266.856-4.323z" fill="#EF948C"/>
    <path d="M15.04 20.634c-.624 0-1.261-.152-1.773-.456-.461-.262-1.521-1.332-2.31-2.216l.15-.136c.803.899 1.837 1.935 2.26 2.175.966.574 2.397.575 3.26.004.429-.244 1.463-1.28 2.266-2.18l.15.137c-.789.884-1.849 1.954-2.311 2.217-.458.303-1.069.455-1.692.455zM9.354 14.73l-.251-2.06.2-.025.251 2.06-.2.025zM20.654 14.73l-.2-.023.227-2.06.2.022-.227 2.06zM7.812 11.387c-.042-.155-.399-1.532.094-1.909.162-.106.295-.096.38-.068.25.082.375.395.389.43l-.189.073c-.027-.071-.128-.266-.263-.31-.062-.02-.128-.006-.202.042-.283.217-.16 1.152-.015 1.689l-.194.053zM22.188 11.387l-.195-.053c.146-.537.269-1.472-.02-1.693-.068-.045-.134-.058-.196-.038-.162.054-.262.308-.263.31l-.188-.073c.013-.035.138-.348.389-.43a.421.421 0 0 1 .373.064c.498.381.142 1.758.1 1.913z" fill="#D26363"/>
    <path d="M9.203 11c1.346.008.328-4.378 1.384-5.44.537-.54 1.321-.452 1.993-.279.783.202 1.59.474 2.417.496.874.023 1.703-.3 2.542-.505.65-.16 1.358-.23 1.873.288 1.056 1.062.038 5.448 1.384 5.44-.093-1.013-.096-2.125.643-2.526h.001C21.956 3.67 19.536.5 15 .5c-4.537 0-6.957 3.17-6.44 7.974.6.394.737 1.466.643 2.527z" fill="#521F4D"/>
    <path d="M27.82 25.223c-4.236-1.907-8.852-2.583-8.852-2.583-2.118 2.229-6.064 2.26-7.936 0 0 0-4.617.676-8.852 2.583C4.813 29.586 9.57 32.5 15 32.5c5.43 0 10.187-2.914 12.82-7.277z" fill="#FFB747"/>
    <path d="m9.96 22.794 1.072-1.942 3.472 3.146-2.125 2.35-2.42-3.554zM20.036 22.794l-1.072-1.942-3.472 3.146 2.124 2.35 2.42-3.554z" fill="#fff"/>
</svg>
